<svg width="15" height="12" viewBox="0 0 15 12" fill="none" xmlns="http://www.w3.org/2000/svg">
<path d="M14.4713 6.46314C14.5331 6.40108 14.582 6.32745 14.6153 6.24647C14.6492 6.16585 14.6667 6.07927 14.6667 5.99181C14.6667 5.90435 14.6492 5.81777 14.6153 5.73714C14.582 5.65616 14.5331 5.58254 14.4713 5.52047L9.138 0.187141C9.01227 0.0657025 8.84386 -0.00149374 8.66907 2.52018e-05C8.49427 0.00154415 8.32706 0.0716568 8.20345 0.195262C8.07985 0.318868 8.00974 0.486076 8.00822 0.660874C8.0067 0.835672 8.0739 1.00407 8.19533 1.12981L12.3907 5.32514H0.666667C0.489856 5.32514 0.320286 5.39538 0.195262 5.5204C0.0702379 5.64543 0 5.815 0 5.99181C0 6.16862 0.0702379 6.33819 0.195262 6.46321C0.320286 6.58824 0.489856 6.65847 0.666667 6.65847H12.3907L8.19533 10.8538C8.0739 10.9795 8.0067 11.1479 8.00822 11.3227C8.00974 11.4975 8.07985 11.6647 8.20345 11.7884C8.32706 11.912 8.49427 11.9821 8.66907 11.9836C8.84386 11.9851 9.01227 11.9179 9.138 11.7965L14.4713 6.46314Z" fill="currentColor"/>
</svg>
