<svg width="21" height="15" viewBox="0 0 21 15" fill="none" xmlns="http://www.w3.org/2000/svg">
<path d="M17.8332 15H3.16655C2.58308 15 2.0235 14.7845 1.61092 14.4009C1.19834 14.0173 0.966553 13.497 0.966553 12.9545V4.77273C0.966553 4.23024 1.19834 3.70997 1.61092 3.32637C2.0235 2.94278 2.58308 2.72727 3.16655 2.72727H6.26122L6.57655 1.54773C6.69587 1.10553 6.97066 0.713071 7.35728 0.432663C7.74391 0.152255 8.22021 -2.61083e-05 8.71055 3.35761e-09H12.2892C12.7796 -2.61083e-05 13.2559 0.152255 13.6425 0.432663C14.0291 0.713071 14.3039 1.10553 14.4232 1.54773L14.7386 2.72727H17.8332C18.4167 2.72727 18.9763 2.94278 19.3889 3.32637C19.8014 3.70997 20.0332 4.23024 20.0332 4.77273V12.9545C20.0332 13.497 19.8014 14.0173 19.3889 14.4009C18.9763 14.7845 18.4167 15 17.8332 15ZM3.16655 4.09091C2.97206 4.09091 2.78553 4.16274 2.64801 4.29061C2.51048 4.41848 2.43322 4.5919 2.43322 4.77273V12.9545C2.43322 13.1354 2.51048 13.3088 2.64801 13.4367C2.78553 13.5645 2.97206 13.6364 3.16655 13.6364H17.8332C18.0277 13.6364 18.2142 13.5645 18.3518 13.4367C18.4893 13.3088 18.5666 13.1354 18.5666 12.9545V4.77273C18.5666 4.5919 18.4893 4.41848 18.3518 4.29061C18.2142 4.16274 18.0277 4.09091 17.8332 4.09091H14.1666C13.999 4.09545 13.8349 4.0465 13.7015 3.95222C13.568 3.85794 13.4734 3.72401 13.4332 3.57273L12.9786 1.875C12.937 1.72499 12.8417 1.59261 12.7084 1.49966C12.5751 1.40671 12.4118 1.35874 12.2452 1.36364H8.71055C8.54402 1.35874 8.38065 1.40671 8.24736 1.49966C8.11407 1.59261 8.01879 1.72499 7.97722 1.875L7.56655 3.57273C7.5264 3.72401 7.43173 3.85794 7.2983 3.95222C7.16487 4.0465 7.00074 4.09545 6.83322 4.09091H3.16655Z" fill="currentColor"/>
<path d="M10.4999 11.7394C9.77469 11.7394 9.06578 11.5395 8.4628 11.1649C7.85982 10.7903 7.38985 10.2579 7.11233 9.63492C6.83481 9.01199 6.7622 8.32654 6.90367 7.66524C7.04515 7.00394 7.39437 6.3965 7.90716 5.91973C8.41996 5.44296 9.07329 5.11827 9.78456 4.98673C10.4958 4.85519 11.2331 4.9227 11.9031 5.18073C12.5731 5.43875 13.1457 5.87571 13.5486 6.43633C13.9515 6.99695 14.1666 7.65606 14.1666 8.33032C14.1666 8.77801 14.0717 9.22131 13.8874 9.63492C13.7032 10.0485 13.4331 10.4243 13.0926 10.7409C12.7521 11.0575 12.3479 11.3086 11.9031 11.4799C11.4582 11.6512 10.9814 11.7394 10.4999 11.7394ZM10.4999 6.28486C10.0648 6.28486 9.63942 6.40483 9.27763 6.62958C8.91584 6.85434 8.63387 7.1738 8.46735 7.54756C8.30084 7.92131 8.25727 8.33259 8.34216 8.72937C8.42705 9.12615 8.63658 9.49061 8.94425 9.77667C9.25193 10.0627 9.64393 10.2575 10.0707 10.3365C10.4974 10.4154 10.9398 10.3749 11.3418 10.2201C11.7438 10.0653 12.0874 9.80308 12.3291 9.46671C12.5709 9.13034 12.6999 8.73487 12.6999 8.33032C12.6999 7.78783 12.4681 7.26756 12.0555 6.88396C11.6429 6.50036 11.0834 6.28486 10.4999 6.28486Z" fill="currentColor"/>
<path d="M16.3666 6.93333H15.8332C15.6918 6.93333 15.5561 6.84905 15.4561 6.69902C15.3561 6.54899 15.2999 6.34551 15.2999 6.13333C15.2999 5.92116 15.3561 5.71768 15.4561 5.56765C15.5561 5.41762 15.6918 5.33333 15.8332 5.33333H16.3666C16.508 5.33333 16.6437 5.41762 16.7437 5.56765C16.8437 5.71768 16.8999 5.92116 16.8999 6.13333C16.8999 6.34551 16.8437 6.54899 16.7437 6.69902C16.6437 6.84905 16.508 6.93333 16.3666 6.93333Z" fill="currentColor"/>
</svg>
