<svg width="26" height="25" viewBox="0 0 26 25" fill="none" xmlns="http://www.w3.org/2000/svg">
<path d="M19.4852 7.42088C19.3871 7.32201 19.2705 7.24354 19.1419 7.18998C19.0134 7.13643 18.8755 7.10886 18.7363 7.10886C18.597 7.10886 18.4591 7.13643 18.3306 7.18998C18.202 7.24354 18.0854 7.32201 17.9873 7.42088L10.1286 15.2901L6.82693 11.9779C6.72511 11.8795 6.60492 11.8022 6.47322 11.7503C6.34151 11.6984 6.20087 11.6729 6.05933 11.6754C5.91779 11.6778 5.77812 11.7081 5.64829 11.7645C5.51846 11.821 5.40101 11.9024 5.30266 12.0042C5.20431 12.106 5.12697 12.2262 5.07507 12.3579C5.02317 12.4896 4.99771 12.6303 5.00016 12.7718C5.00261 12.9134 5.03291 13.053 5.08934 13.1829C5.14577 13.3127 5.22722 13.4301 5.32903 13.5285L9.37968 17.5791C9.47774 17.678 9.59441 17.7565 9.72295 17.81C9.8515 17.8636 9.98937 17.8912 10.1286 17.8912C10.2679 17.8912 10.4058 17.8636 10.5343 17.81C10.6628 17.7565 10.7795 17.678 10.8776 17.5791L19.4852 8.97152C19.5923 8.87274 19.6777 8.75285 19.7362 8.61942C19.7946 8.48598 19.8248 8.34188 19.8248 8.1962C19.8248 8.05052 19.7946 7.90642 19.7362 7.77298C19.6777 7.63955 19.5923 7.51966 19.4852 7.42088Z" fill="currentColor"/>
</svg>
