<svg width="50" height="51" viewBox="0 0 50 51" fill="none" xmlns="http://www.w3.org/2000/svg">
<circle cx="25" cy="25" r="25" fill="#D1D5DB"/>
<path fill-rule="evenodd" clip-rule="evenodd" d="M23.9805 25.991L24.0025 28.017C24.0095 28.569 24.4625 29.012 25.0135 29.006C25.5655 29 26.0085 28.547 26.0025 27.995L25.9805 25.968C25.9745 25.416 25.5215 24.973 24.9695 24.979C24.4175 24.986 23.9745 25.439 23.9805 25.991Z" fill="black"/>
<path fill-rule="evenodd" clip-rule="evenodd" d="M20.0001 23.203L20.0021 34.999C20.0031 37.757 22.2392 39.994 24.9981 39.994C26.3251 39.994 27.5971 39.467 28.5351 38.529C29.4731 37.591 30.0002 36.319 29.9992 34.993L29.9971 23.186L32.7571 16.771C32.9171 16.399 33.0001 15.998 33.0011 15.593L33.0021 15.007C33.0042 14.21 32.6891 13.445 32.1261 12.881C31.5631 12.317 30.7992 12 30.0022 12H19.9961C18.3411 12 16.9991 13.339 16.9961 14.993C16.9951 15.214 16.9951 15.418 16.9941 15.584C16.9931 15.993 17.0761 16.399 17.2381 16.775L20.0001 23.203ZM30.0531 17.997H19.9401L21.9201 22.605C21.9821 22.75 22.0081 22.901 22.0001 23.048L22.0021 34.998C22.0021 36.653 23.3441 37.994 24.9981 37.994C25.7941 37.994 26.5582 37.678 27.1212 37.115C27.6832 36.552 27.9992 35.789 27.9992 34.993L27.9971 23.13C27.9751 22.957 27.9971 22.776 28.0701 22.605L30.0531 17.997ZM30.9131 15.997L30.9201 15.981C30.9732 15.857 31.0011 15.723 31.0011 15.588L31.0022 15.002C31.0032 14.737 30.8981 14.482 30.7101 14.294C30.5221 14.106 30.2682 14 30.0022 14H19.9961C19.4441 14 18.9971 14.446 18.9961 14.998L18.9941 15.588C18.9941 15.725 19.0221 15.86 19.0761 15.985L19.0801 15.997H30.9131Z" fill="black"/>
</svg>
