<svg width="50" height="50" viewBox="0 0 50 50" fill="none" xmlns="http://www.w3.org/2000/svg">
<circle cx="25" cy="25" r="25" fill="#D1D5DB"/>
<path d="M32.235 14.75H17.765C16.103 14.75 14.75 16.102 14.75 17.765V32.236C14.75 33.898 16.102 35.251 17.765 35.251H32.236C33.898 35.251 35.251 33.899 35.251 32.236V17.765C35.25 16.102 33.898 14.75 32.235 14.75ZM34.044 32.235C34.044 33.232 33.233 34.044 32.235 34.044H17.765C16.768 34.044 15.956 33.233 15.956 32.235V30.054L20.822 24.647L27.395 30.622L31.03 27.593L34.045 30.105L34.044 32.235ZM34.044 28.536L31.029 26.024L27.428 29.024L20.737 22.94L15.956 28.252V17.765C15.956 16.768 16.767 15.956 17.765 15.956H32.236C33.233 15.956 34.045 16.767 34.045 17.765L34.044 28.536Z" fill="black"/>
<path d="M29.2211 23.794C30.8831 23.794 32.2361 22.442 32.2361 20.779C32.2361 19.116 30.8841 17.764 29.2211 17.764C27.5591 17.764 26.2061 19.116 26.2061 20.779C26.2061 22.442 27.5581 23.794 29.2211 23.794ZM29.2211 18.971C30.2181 18.971 31.0301 19.782 31.0301 20.78C31.0301 21.778 30.2191 22.589 29.2211 22.589C28.2231 22.589 27.4121 21.778 27.4121 20.78C27.4121 19.782 28.2231 18.971 29.2211 18.971Z" fill="black"/>
</svg>
