<svg width="23" height="23" viewBox="0 0 23 23" fill="none" xmlns="http://www.w3.org/2000/svg">
<path d="M11.4999 1.91574C16.7934 1.91574 21.0847 6.20701 21.0847 11.5006C21.0847 16.7941 16.7934 21.0854 11.4999 21.0854C6.20631 21.0854 1.91504 16.7941 1.91504 11.5006C1.91504 6.20701 6.20631 1.91574 11.4999 1.91574ZM11.4999 3.35324C7.00022 3.35324 3.35254 7.00093 3.35254 11.5006C3.35254 16.0003 7.00022 19.6479 11.4999 19.6479C15.9995 19.6479 19.6472 16.0003 19.6472 11.5006C19.6472 7.00093 15.9995 3.35324 11.4999 3.35324ZM11.4964 10.0621C11.8602 10.0619 12.1611 10.3321 12.209 10.6828L12.2156 10.7804L12.219 16.0528C12.2193 16.4497 11.8977 16.7717 11.5008 16.772C11.1369 16.7722 10.836 16.502 10.7881 16.1513L10.7815 16.0537L10.7781 10.7814C10.7778 10.3844 11.0994 10.0624 11.4964 10.0621ZM11.5003 6.71011C12.0289 6.71011 12.4574 7.1386 12.4574 7.66716C12.4574 8.19573 12.0289 8.62422 11.5003 8.62422C10.9718 8.62422 10.5432 8.19573 10.5432 7.66716C10.5432 7.1386 10.9718 6.71011 11.5003 6.71011Z" fill="currentColor"/>
</svg>
