<svg width="12" height="15" viewBox="0 0 12 15" fill="none" xmlns="http://www.w3.org/2000/svg">
<path d="M6.0001 10C7.49118 10 8.7001 8.80603 8.7001 7.33336V2.66668C8.7001 1.194 7.49118 0 6.0001 0C4.50903 0 3.3001 1.194 3.3001 2.66668V7.33336C3.3001 8.80603 4.50903 10 6.0001 10ZM4.6501 2.66668C4.6501 1.93134 5.25558 1.33334 6.0001 1.33334C6.74463 1.33334 7.3501 1.93134 7.3501 2.66668V7.33336C7.3501 8.0687 6.74463 8.6667 6.0001 8.6667C5.25558 8.6667 4.6501 8.0687 4.6501 7.33336V2.66668Z" fill="currentColor"/>
<path d="M11.4001 7.33331H10.0501C10.0501 9.53898 8.23333 11.3333 6.0001 11.3333C3.76686 11.3333 1.9501 9.53898 1.9501 7.33331H0.600098C0.600098 10.048 2.6656 12.2907 5.3251 12.6203V13.6667H2.6251V15H9.3751V13.6667H6.6751V12.6203C9.3346 12.2907 11.4001 10.048 11.4001 7.33331Z" fill="currentColor"/>
</svg>
