<svg width="17" height="12" viewBox="0 0 17 12" fill="none" xmlns="http://www.w3.org/2000/svg">
<path d="M1.05767 1.36832H15.9423C16.1217 1.36832 16.2938 1.29981 16.4207 1.17785C16.5475 1.0559 16.6188 0.890491 16.6188 0.718021C16.6188 0.545551 16.5475 0.380146 16.4207 0.258191C16.2938 0.136237 16.1217 0.0677233 15.9423 0.0677233H1.05767C0.878228 0.0677233 0.70614 0.136237 0.579257 0.258191C0.452376 0.380146 0.381094 0.545551 0.381094 0.718021C0.381094 0.890491 0.452376 1.0559 0.579257 1.17785C0.70614 1.29981 0.878228 1.36832 1.05767 1.36832Z" fill="currentColor"/>
<path d="M3.08738 3.31921C2.90795 3.31921 2.73586 3.38772 2.60897 3.50968C2.48209 3.63163 2.41081 3.79704 2.41081 3.96951C2.41081 4.14198 2.48209 4.30738 2.60897 4.42934C2.73586 4.55129 2.90795 4.61981 3.08738 4.61981H13.9125C14.092 4.61981 14.2641 4.55129 14.391 4.42934C14.5178 4.30738 14.5891 4.14198 14.5891 3.96951C14.5891 3.79704 14.5178 3.63163 14.391 3.50968C14.2641 3.38772 14.092 3.31921 13.9125 3.31921H3.08738Z" fill="currentColor"/>
<path d="M15.9423 6.5707H1.05767C0.878228 6.5707 0.70614 6.63921 0.579257 6.76117C0.452376 6.88312 0.381094 7.04853 0.381094 7.221C0.381094 7.39347 0.452376 7.55887 0.579257 7.68083C0.70614 7.80278 0.878228 7.87129 1.05767 7.87129H15.9423C16.1217 7.87129 16.2938 7.80278 16.4207 7.68083C16.5475 7.55887 16.6188 7.39347 16.6188 7.221C16.6188 7.04853 16.5475 6.88312 16.4207 6.76117C16.2938 6.63921 16.1217 6.5707 15.9423 6.5707Z" fill="currentColor"/>
<path d="M13.9125 9.82219H3.08738C2.90795 9.82219 2.73586 9.8907 2.60897 10.0127C2.48209 10.1346 2.41081 10.3 2.41081 10.4725C2.41081 10.645 2.48209 10.8104 2.60897 10.9323C2.73586 11.0543 2.90795 11.1228 3.08738 11.1228H13.9125C14.092 11.1228 14.2641 11.0543 14.391 10.9323C14.5178 10.8104 14.5891 10.645 14.5891 10.4725C14.5891 10.3 14.5178 10.1346 14.391 10.0127C14.2641 9.8907 14.092 9.82219 13.9125 9.82219Z" fill="currentColor"/>
</svg>
