<svg width="12" height="12" viewBox="0 0 12 12" fill="none" xmlns="http://www.w3.org/2000/svg">
<path d="M9.33333 0H5.33333C3.86667 0 2.66667 1.2 2.66667 2.66667C1.2 2.66667 0 3.86667 0 5.33333V9.33333C0 10.8 1.2 12 2.66667 12H6.66667C8.13333 12 9.33333 10.8 9.33333 9.33333C10.8 9.33333 12 8.13333 12 6.66667V2.66667C12 1.2 10.8 0 9.33333 0ZM8 9.33333C8 10.0667 7.4 10.6667 6.66667 10.6667H2.66667C1.93333 10.6667 1.33333 10.0667 1.33333 9.33333V5.33333C1.33333 4.6 1.93333 4 2.66667 4H3.33333H6.66667C7.4 4 8 4.6 8 5.33333V8.66667V9.33333ZM10.6667 6.66667C10.6667 7.4 10.0667 8 9.33333 8V5.33333C9.33333 3.86667 8.13333 2.66667 6.66667 2.66667H4C4 1.93333 4.6 1.33333 5.33333 1.33333H9.33333C10.0667 1.33333 10.6667 1.93333 10.6667 2.66667V6.66667Z" fill="currentColor"/>
</svg>
