<svg width="19" height="20" viewBox="0 0 19 20" fill="none" xmlns="http://www.w3.org/2000/svg">
<path d="M17.3992 8.88739C16.7992 8.88739 16.3992 9.28739 16.3992 9.88739C16.3992 13.7874 13.2992 16.8874 9.39922 16.8874C9.19922 16.8874 8.89922 16.8874 8.69922 16.8874C8.49922 16.8874 8.39922 16.8874 8.19922 16.7874C7.99922 16.7874 7.89922 16.6874 7.69922 16.6874C7.59922 16.6874 7.49922 16.5874 7.39922 16.5874C6.69922 16.3874 5.99922 15.9874 5.39922 15.5874C5.29922 15.4874 5.19922 15.4874 5.19922 15.3874C5.09922 15.2874 4.99922 15.1874 4.89922 15.1874C4.69922 15.0874 4.49922 14.8874 4.39922 14.7874C4.29922 14.6874 4.29922 14.6874 4.19922 14.5874L5.99922 14.2874C6.49922 14.1874 6.89922 13.6874 6.79922 13.0874C6.69922 12.5874 6.19922 12.1874 5.59922 12.2874L1.49922 13.0874C1.19922 13.0874 0.999219 13.2874 0.899219 13.4874C0.799219 13.6874 0.699219 13.9874 0.699219 14.1874L1.49922 18.3874C1.59922 18.8874 1.99922 19.1874 2.49922 19.1874C2.59922 19.1874 2.59922 19.1874 2.69922 19.1874C3.19922 19.0874 3.59922 18.5874 3.49922 17.9874L3.19922 16.2874C3.39922 16.4874 3.69922 16.6874 3.89922 16.8874C3.89922 16.8874 3.89922 16.8874 3.99922 16.8874C4.09922 16.9874 4.19922 17.0874 4.29922 17.0874C4.49922 17.2874 4.69922 17.3874 4.99922 17.4874C5.19922 17.8874 5.49922 17.9874 5.79922 18.1874H5.89922C5.99922 18.2874 6.19922 18.2874 6.39922 18.3874C6.79922 18.4874 7.19922 18.5874 7.49922 18.6874C7.69922 18.6874 7.89922 18.7874 8.09922 18.7874H8.19922C8.29922 18.7874 8.49922 18.7874 8.59922 18.7874C8.79922 18.7874 9.09922 18.7874 9.29922 18.7874C14.2992 18.7874 18.2992 14.7874 18.2992 9.78739C18.3992 9.28739 17.8992 8.88739 17.3992 8.88739Z" fill="currentColor"/>
<path d="M1.4993 10.8874C2.0993 10.8874 2.4993 10.4874 2.4993 9.88739C2.4993 5.98739 5.5993 2.88739 9.4993 2.88739C9.6993 2.88739 9.9993 2.88739 10.1993 2.88739C10.3993 2.88739 10.4993 2.88739 10.6993 2.98739C10.8993 2.98739 10.9993 3.08739 11.1993 3.08739C11.2993 3.08739 11.3993 3.18739 11.4993 3.18739C12.1993 3.38739 12.8993 3.68739 13.4993 4.18739C13.5993 4.28739 13.6993 4.28739 13.7993 4.38739C13.8993 4.48739 13.9993 4.48739 14.0993 4.58739C14.1993 4.68739 14.2993 4.88739 14.4993 4.98739C14.5993 5.08739 14.5993 5.08739 14.6993 5.18739L12.8993 5.48739C12.3993 5.58739 11.9993 6.08739 12.0993 6.68739C12.1993 7.18739 12.5993 7.48739 13.0993 7.48739C13.1993 7.48739 13.1993 7.48739 13.2993 7.48739L17.4993 6.68739C17.9993 6.58739 18.3993 6.08739 18.2993 5.48739L17.4993 1.38739C17.3993 0.887387 16.8993 0.487387 16.2993 0.587387C15.7993 0.687387 15.3993 1.18739 15.4993 1.78739L15.7993 3.48739C15.5993 3.28739 15.2993 2.98739 15.0993 2.88739C15.0993 2.88739 15.0993 2.88739 14.9993 2.88739C14.8993 2.78739 14.7993 2.68739 14.6993 2.68739C14.4993 2.48739 14.2993 2.38739 13.9993 2.18739C13.6993 1.98739 13.3993 1.88739 13.0993 1.68739H12.9993C12.8993 1.58739 12.6993 1.58739 12.4993 1.48739C12.0993 1.38739 11.6993 1.28739 11.3993 1.18739C11.1993 1.18739 10.9993 1.08739 10.7993 1.08739H10.6993C10.5993 1.08739 10.3993 1.08739 10.2993 1.08739C10.0993 1.08739 9.7993 1.08739 9.5993 1.08739C4.5993 1.08739 0.599299 5.08739 0.599299 10.0874C0.499299 10.4874 0.899299 10.8874 1.4993 10.8874Z" fill="currentColor"/>
<path d="M10.5 5.88739C10.5 5.28739 10.1 4.88739 9.5 4.88739C8.9 4.88739 8.5 5.28739 8.5 5.88739V10.8874C8.5 11.4874 8.9 11.8874 9.5 11.8874C10.1 11.8874 10.5 11.4874 10.5 10.8874V5.88739Z" fill="currentColor"/>
<path d="M9.5 14.8874C10.0523 14.8874 10.5 14.4397 10.5 13.8874C10.5 13.3351 10.0523 12.8874 9.5 12.8874C8.94772 12.8874 8.5 13.3351 8.5 13.8874C8.5 14.4397 8.94772 14.8874 9.5 14.8874Z" fill="currentColor"/>
</svg>
