<svg width="21" height="20" viewBox="0 0 21 20" fill="none" xmlns="http://www.w3.org/2000/svg">
<path d="M13.957 11.6406C14.543 10.7188 14.8867 9.625 14.8867 8.44922C14.8867 5.16406 12.2266 2.5 8.94531 2.5C5.66016 2.5 3 5.16406 3 8.44922C3 11.7344 5.66016 14.3984 8.94141 14.3984C10.1328 14.3984 11.2422 14.0469 12.1719 13.4453L12.4414 13.2578L16.6836 17.5L18 16.1602L13.7617 11.918L13.957 11.6406ZM12.2734 5.125C13.1602 6.01172 13.6484 7.19141 13.6484 8.44531C13.6484 9.69922 13.1602 10.8789 12.2734 11.7656C11.3867 12.6523 10.207 13.1406 8.95312 13.1406C7.69922 13.1406 6.51953 12.6523 5.63281 11.7656C4.74609 10.8789 4.25781 9.69922 4.25781 8.44531C4.25781 7.19141 4.74609 6.01172 5.63281 5.125C6.51953 4.23828 7.69922 3.75 8.95312 3.75C10.207 3.75 11.3867 4.23828 12.2734 5.125Z" fill="currentColor"/>
</svg>
