<svg width="23" height="22" viewBox="0 0 23 22" fill="none" xmlns="http://www.w3.org/2000/svg">
<path d="M13.0287 22.0022H9.78861C9.58974 22.0022 9.3979 21.9272 9.25004 21.7916C9.10219 21.656 9.00879 21.4694 8.98784 21.2677L8.74793 18.964C8.41303 18.8478 8.08585 18.7096 7.76845 18.5503L6.00322 20.0061C5.84873 20.133 5.65373 20.1973 5.45563 20.1866C5.25754 20.1759 5.07029 20.0909 4.92981 19.9481L2.63862 17.6116C2.49855 17.4683 2.41528 17.2774 2.40478 17.0754C2.39428 16.8734 2.45729 16.6745 2.58173 16.517L4.0099 14.7146C3.85339 14.391 3.71768 14.0574 3.60361 13.7158L1.34086 13.4695C1.1432 13.4481 0.960265 13.353 0.827289 13.2023C0.694312 13.0517 0.620692 12.8562 0.620605 12.6534V9.34874C0.620692 9.14604 0.694312 8.95054 0.827289 8.79987C0.960265 8.64921 1.1432 8.55404 1.34086 8.53269L3.59986 8.28804C3.71392 7.94646 3.84964 7.61281 4.00614 7.28918L2.57797 5.48687C2.45354 5.32931 2.39053 5.13046 2.40103 4.92845C2.41152 4.72643 2.49479 4.53548 2.63486 4.39223L4.92605 2.05573C5.06653 1.91289 5.25378 1.82798 5.45187 1.81727C5.64997 1.80656 5.84497 1.87082 5.99947 1.99771L7.76684 3.45358C8.08424 3.29425 8.41142 3.15604 8.74632 3.03981L8.98623 0.736145C9.00683 0.533898 9.1003 0.346644 9.24853 0.210648C9.39677 0.074652 9.58921 -0.000408994 9.78861 1.67625e-06H13.0287C13.2276 -4.49048e-05 13.4194 0.0749693 13.5673 0.210589C13.7151 0.346208 13.8085 0.532834 13.8295 0.734502L14.0688 3.03816C14.4039 3.15439 14.7313 3.29261 15.0489 3.45194L16.8157 1.99607C16.9702 1.86918 17.1652 1.80492 17.3633 1.81563C17.5614 1.82633 17.7486 1.91125 17.8891 2.05409L20.1803 4.39059C20.3204 4.53384 20.4036 4.72479 20.4141 4.92681C20.4246 5.12882 20.3616 5.32767 20.2372 5.48522L18.809 7.28754C18.9653 7.61127 19.101 7.94491 19.2153 8.2864L21.4743 8.53105C21.6719 8.55253 21.8547 8.64775 21.9875 8.7984C22.1204 8.94905 22.1939 9.14448 22.194 9.3471V12.6518C22.1944 12.8544 22.1213 13.0499 21.9889 13.2009C21.8564 13.3518 21.6739 13.4475 21.4764 13.4695L19.2174 13.7142C19.1031 14.0556 18.9674 14.3893 18.8112 14.713L20.2393 16.5153C20.3638 16.6729 20.4268 16.8717 20.4163 17.0737C20.4058 17.2758 20.3225 17.4667 20.1824 17.61L17.8912 19.9481C17.7508 20.0909 17.5635 20.1759 17.3654 20.1866C17.1673 20.1973 16.9723 20.133 16.8178 20.0061L15.051 18.5503C14.7334 18.7096 14.4061 18.8478 14.071 18.964L13.8316 21.2677C13.8106 21.4697 13.7169 21.6567 13.5686 21.7923C13.4203 21.928 13.2279 22.0028 13.0287 22.0022ZM10.5115 20.3602H12.3036L12.5231 18.2498C12.5403 18.0846 12.6063 17.9286 12.7123 17.8025C12.8183 17.6763 12.9593 17.5859 13.1167 17.5432C13.6838 17.389 14.2281 17.1584 14.7354 16.8574C14.8767 16.7735 15.0396 16.7354 15.2026 16.7482C15.3656 16.761 15.5209 16.8241 15.6478 16.9291L17.2665 18.2629L18.5337 16.9707L17.2236 15.3249C17.1206 15.1954 17.0587 15.0371 17.0462 14.8709C17.0336 14.7047 17.071 14.5385 17.1533 14.3945C17.4478 13.8775 17.6732 13.3227 17.8236 12.7449C17.8655 12.5842 17.9543 12.4404 18.0781 12.3323C18.2019 12.2242 18.355 12.157 18.517 12.1395L20.586 11.9151V10.0876L18.517 9.86322C18.355 9.84576 18.2019 9.77854 18.0781 9.67046C17.9543 9.56237 17.8655 9.41851 17.8236 9.25789C17.6733 8.67983 17.4478 8.12487 17.1533 7.60772C17.071 7.46369 17.0336 7.29753 17.0462 7.13133C17.0587 6.96512 17.1206 6.80675 17.2236 6.67728L18.5315 5.02657L17.2644 3.73435L15.6457 5.06817C15.5187 5.17317 15.3634 5.23627 15.2004 5.24907C15.0375 5.26188 14.8745 5.22379 14.7333 5.13987C14.2262 4.83976 13.6822 4.60987 13.1156 4.45627C12.9582 4.41356 12.8172 4.32316 12.7112 4.197C12.6052 4.07085 12.5393 3.91487 12.522 3.74968L12.3047 1.64196H10.5115L10.292 3.75241C10.2748 3.91768 10.2087 4.0737 10.1027 4.19987C9.99656 4.32603 9.85543 4.41639 9.6979 4.459C9.13172 4.61331 8.58826 4.84394 8.08188 5.14479C7.94064 5.22871 7.7777 5.26681 7.61472 5.254C7.45174 5.24119 7.29644 5.17809 7.16948 5.07309L5.55239 3.73709L4.28577 5.02931L5.59425 6.68002C5.69713 6.80955 5.75891 6.96794 5.77137 7.13415C5.78384 7.30035 5.74639 7.46648 5.66402 7.61046C5.36997 8.12766 5.14456 8.68237 4.99368 9.26008C4.9518 9.42062 4.86316 9.56442 4.73944 9.6725C4.61573 9.78058 4.46278 9.84785 4.30079 9.86541L2.23126 10.0898V11.9168L4.30079 12.1412C4.46278 12.1587 4.61573 12.226 4.73944 12.3341C4.86316 12.4421 4.9518 12.586 4.99368 12.7465C5.14452 13.3236 5.36975 13.8778 5.66349 14.3945C5.74586 14.5384 5.7833 14.7046 5.77084 14.8708C5.75838 15.037 5.6966 15.1954 5.59372 15.3249L4.28577 16.9729L5.55293 18.2651L7.17217 16.9313C7.29913 16.8263 7.45443 16.7632 7.61741 16.7504C7.78039 16.7376 7.94333 16.7757 8.08457 16.8596C8.59139 17.1598 9.13522 17.3897 9.70166 17.5432C9.85919 17.5858 10.0003 17.6762 10.1064 17.8023C10.2125 17.9285 10.2785 18.0845 10.2958 18.2498L10.5115 20.3602Z" fill="currentColor"/>
<path d="M11.4079 16.0025C10.4382 16.0024 9.49021 15.7091 8.68393 15.1596C7.87765 14.6101 7.24926 13.8291 6.87822 12.9154C6.50718 12.0017 6.41015 10.9963 6.59941 10.0264C6.78867 9.05648 7.25571 8.16556 7.94147 7.46631C8.62724 6.76707 9.50093 6.29089 10.4521 6.09799C11.4032 5.9051 12.3891 6.00416 13.285 6.38263C14.181 6.76111 14.9467 7.40201 15.4855 8.22429C16.0242 9.04658 16.3118 10.0133 16.3118 11.0023C16.3104 12.3281 15.7933 13.5992 14.8739 14.5366C13.9545 15.474 12.708 16.0012 11.4079 16.0025ZM11.4079 7.64391C10.7566 7.64402 10.12 7.84107 9.57846 8.21016C9.03696 8.57924 8.61495 9.10378 8.36577 9.71745C8.1166 10.3311 8.05146 11.0063 8.17859 11.6578C8.30572 12.3092 8.61941 12.9075 9.08 13.3772C9.54058 13.8468 10.1274 14.1666 10.7662 14.2961C11.405 14.4256 12.0671 14.3591 12.6689 14.1049C13.2706 13.8507 13.7849 13.4203 14.1467 12.868C14.5086 12.3157 14.7017 11.6664 14.7017 11.0023C14.7007 10.1118 14.3533 9.25808 13.7358 8.62847C13.1183 7.99886 12.2811 7.64478 11.4079 7.64391Z" fill="currentColor"/>
</svg>
