<svg width="19" height="15" viewBox="0 0 19 15" fill="none" xmlns="http://www.w3.org/2000/svg">
<path d="M10.0525 0.0711739C9.94687 0.024547 9.82707 0 9.70512 0C9.58317 0 9.46337 0.024547 9.35776 0.0711739L3.26514 3.19492H0.694712C0.510463 3.19492 0.33376 3.2509 0.203476 3.35052C0.0731928 3.45015 0 3.58528 0 3.72617V11.1637C0 11.3046 0.0731928 11.4397 0.203476 11.5393C0.33376 11.639 0.510463 11.6949 0.694712 11.6949H3.26514L9.34387 14.7921C9.44835 14.8447 9.56948 14.8748 9.69446 14.8791C9.81944 14.8835 9.94363 14.8619 10.0539 14.8168C10.1642 14.7716 10.2565 14.7045 10.3211 14.6226C10.3856 14.5406 10.42 14.4468 10.4207 14.3512V0.538674C10.4203 0.442569 10.3859 0.348333 10.3211 0.266006C10.2562 0.183678 10.1634 0.116343 10.0525 0.0711739ZM1.38942 4.25742H2.77885V10.6324H1.38942V4.25742ZM9.03125 13.363L4.16827 10.8821V4.00774L9.03125 1.5268V13.363Z" fill="currentColor"/>
<path d="M15.2143 2.18554C15.0814 2.09851 14.9105 2.05303 14.7356 2.0582C14.5608 2.06336 14.3949 2.11879 14.2712 2.2134C14.1475 2.30801 14.075 2.43484 14.0682 2.56855C14.0615 2.70225 14.121 2.83298 14.2348 2.93461C15.012 3.52687 15.6286 4.23062 16.0494 5.00551C16.4701 5.7804 16.6867 6.61119 16.6867 7.45023C16.6867 8.28927 16.4701 9.12006 16.0494 9.89495C15.6286 10.6698 15.012 11.3736 14.2348 11.9659C14.1556 12.012 14.0903 12.0705 14.0433 12.1376C13.9963 12.2047 13.9687 12.2787 13.9623 12.3547C13.956 12.4306 13.9711 12.5067 14.0066 12.5778C14.042 12.649 14.0971 12.7134 14.1679 12.7668C14.2388 12.8203 14.3239 12.8614 14.4174 12.8875C14.5108 12.9136 14.6106 12.9241 14.7098 12.9181C14.809 12.9122 14.9054 12.8901 14.9924 12.8532C15.0795 12.8163 15.1552 12.7655 15.2143 12.7043C17.0364 11.3097 18.0599 9.41895 18.0599 7.44757C18.0599 5.4762 17.0364 3.58546 15.2143 2.19086V2.18554Z" fill="currentColor"/>
<path d="M12.762 4.06618C12.6299 4.00774 12.4763 3.98419 12.325 3.99916C12.1737 4.01412 12.033 4.06678 11.9247 4.14899C11.8164 4.23121 11.7465 4.3384 11.7258 4.45402C11.7051 4.56964 11.7348 4.68725 11.8103 4.78868C12.2724 5.13493 12.6395 5.54821 12.8901 6.00431C13.1408 6.46042 13.2699 6.95019 13.2699 7.44493C13.2699 7.93967 13.1408 8.42944 12.8901 8.88555C12.6395 9.34165 12.2724 9.75493 11.8103 10.1012C11.6804 10.2012 11.6078 10.3366 11.6084 10.4776C11.6091 10.6186 11.6829 10.7536 11.8137 10.8529C11.9445 10.9522 12.1216 11.0078 12.306 11.0073C12.4903 11.0068 12.6669 10.9503 12.7967 10.8502C13.3776 10.4062 13.8383 9.87909 14.1526 9.2989C14.467 8.71871 14.6288 8.09685 14.6288 7.46884C14.6288 6.84082 14.467 6.21896 14.1526 5.63877C13.8383 5.05858 13.3776 4.53143 12.7967 4.08743L12.762 4.06618Z" fill="currentColor"/>
</svg>
